<?xml version="1.0" encoding="UTF-8"?> <svg xmlns="http://www.w3.org/2000/svg" width="1090" height="489" viewBox="0 0 1090 489" fill="none"> <path d="M111.7 304.555C102 317.855 87.05 327.505 69.65 327.505C40.9 327.505 17.65 302.905 17.65 274.155C17.65 245.405 40.9 221.355 69.65 221.355C85.95 221.355 100.35 229.605 110 241.505C114.45 247.055 116.1 245.105 116.1 240.955C116.1 239.005 116.1 230.455 116.1 225.755C116.1 223.005 115 221.355 113.9 220.205C102.3 209.705 86.25 204.755 69.65 204.755C30.95 204.755 0 235.705 0 274.155C0 312.555 30.95 344.105 69.65 344.105C86.25 344.105 101.75 338.005 113.6 328.355C115.3 326.955 116.1 325.305 116.1 322.555C116.1 317.555 116.1 308.705 116.1 305.405C116.1 300.705 113.35 302.355 111.7 304.555ZM191.05 344.105C202.1 344.105 218.7 340.205 226.7 329.155C227.55 328.055 228.9 328.605 228.9 329.705C228.9 330.255 228.9 332.755 228.9 333.305C228.9 337.205 233.05 340.505 237.5 340.505H238.3C243 340.505 247.15 336.655 247.15 331.655L246.9 216.905C246.9 211.955 243 208.055 238.05 208.055H237.5C232.5 208.055 228.65 211.955 228.65 216.905C228.65 216.905 228.65 288.255 228.65 291.555C228.65 315.055 216.5 326.955 191.05 326.955C171.4 326.955 155.65 314.505 155.65 286.605V216.905C155.65 211.955 151.8 208.055 147.1 208.055H146.25C141.55 208.055 137.4 211.955 137.4 216.905V287.705C137.4 331.405 165.3 344.105 191.05 344.105ZM359.15 208.055H277.05C272.35 208.055 268.45 211.955 268.45 216.655V217.205C268.45 221.905 272.35 225.755 277.05 225.755H306.35C308 225.755 309.1 227.155 309.1 228.505V331.955C309.1 336.655 313 340.505 317.7 340.505H318.5C323.2 340.505 327.1 336.655 327.1 331.955V228.505C327.1 227.155 328.2 225.755 329.55 225.755H359.15C363.85 225.755 367.7 221.905 367.7 217.205V216.655C367.7 211.955 363.85 208.055 359.15 208.055ZM442.65 344.105C453.7 344.105 470.3 340.205 478.3 329.155C479.15 328.055 480.55 328.605 480.55 329.705C480.55 330.255 480.55 332.755 480.55 333.305C480.55 337.205 484.7 340.505 489.1 340.505H489.95C494.65 340.505 498.8 336.655 498.8 331.655L498.5 216.905C498.5 211.955 494.65 208.055 489.65 208.055H489.1C484.15 208.055 480.25 211.955 480.25 216.905C480.25 216.905 480.25 288.255 480.25 291.555C480.25 315.055 468.1 326.955 442.65 326.955C423 326.955 407.25 314.505 407.25 286.605V216.905C407.25 211.955 403.4 208.055 398.7 208.055H397.85C393.15 208.055 389 211.955 389 216.905V287.705C389 331.405 416.95 344.105 442.65 344.105ZM630.1 208.055H535C530.3 208.055 526.45 211.955 526.45 216.655V331.955C526.45 336.655 530.3 340.505 535 340.505H535.85C540.55 340.505 544.4 336.655 544.4 331.955V228.505C544.4 227.155 545.5 225.755 546.9 225.755H618.25C619.6 225.755 621 227.155 621 228.505V331.955C621 336.655 624.85 340.505 629.55 340.505H630.1C634.8 340.505 638.7 336.655 638.7 331.955V216.655C638.7 211.955 634.8 208.055 630.1 208.055ZM661.35 274.705C661.35 313.405 693.15 344.105 731.85 344.105C751.5 344.105 769.5 336.105 781.35 321.955C781.9 321.155 783.85 320.605 783.85 323.905C783.85 325.855 783.85 332.205 783.85 332.205C783.85 336.905 787.75 340.805 792.45 340.805H793C797.7 340.805 801.55 336.905 801.55 332.205V216.655C801.55 211.955 797.7 208.055 793 208.055H792.45C787.75 208.055 783.85 211.955 783.85 216.655C783.85 219.955 783.85 224.355 783.85 224.655C783.85 228.255 781.1 227.405 780.25 226.055C769.5 212.505 750.4 204.755 731.3 204.755C692.6 204.755 661.35 236.005 661.35 274.705ZM679.05 274.705C679.05 245.955 702.3 221.355 731.3 221.355C760.1 221.355 783.6 245.955 783.6 274.705C783.6 303.455 760.65 327.505 731.85 327.505C702.85 327.505 679.05 303.455 679.05 274.705ZM899.15 204.755C880.1 204.755 861 212.505 850.2 226.055C849.1 227.405 846.6 228.255 846.6 224.655C846.6 224.355 846.6 220.205 846.6 216.655C846.6 211.955 842.75 208.055 838.05 208.055H837.5C832.8 208.055 829.2 211.955 829.2 216.655V370.905C829.2 375.605 832.8 379.205 837.5 379.205H838.05C842.75 379.205 846.6 375.605 846.6 370.905C846.6 370.905 846.6 325.555 846.6 323.655C846.6 320.605 848.55 321.155 849.1 321.955C860.15 336.655 878.95 344.105 898.6 344.105C937.3 344.105 969.1 313.405 969.1 274.705C969.1 236.005 937.85 204.755 899.15 204.755ZM898.6 327.505C869.85 327.505 846.9 303.455 846.9 274.705C846.9 245.955 870.4 221.355 899.15 221.355C927.9 221.355 951.4 245.955 951.4 274.705C951.4 303.455 927.65 327.505 898.6 327.505ZM1087.45 326.405C1087.45 326.405 1043.2 268.055 1041.3 265.555C1039.6 263.355 1040.15 261.705 1041.55 260.305C1043.2 258.955 1079.15 226.605 1079.15 226.605C1082.75 223.255 1083.05 218.005 1080 214.405L1079.45 213.855C1076.1 210.555 1070.85 210.255 1067.25 213.305C1067.25 213.305 1015.55 261.155 1013.35 263.105C1011.15 265.305 1009.75 264.455 1009.75 261.405C1009.75 258.105 1009.75 216.655 1009.75 216.655C1009.75 211.955 1005.9 208.055 1001.2 208.055H1000.35C995.65 208.055 991.8 211.955 991.8 216.655V331.955C991.8 336.655 995.65 340.505 1000.35 340.505H1001.2C1005.9 340.505 1009.75 336.655 1009.75 331.955C1009.75 331.955 1009.75 294.305 1009.75 291.305C1009.75 287.955 1010.6 286.605 1012.25 285.205C1015.85 281.905 1023.6 274.405 1024.7 273.305C1026.35 271.955 1028.3 271.955 1029.65 273.605C1031.05 275.505 1073.05 336.905 1073.05 336.905C1075.85 340.805 1081.35 341.605 1085.25 338.855L1085.8 338.305C1089.4 335.505 1090.2 330.005 1087.45 326.405Z" fill="black"></path> <path d="M30 464.705H37.55V446.005H58V464.705H65.55V421.355H58V439.105H37.55V421.355H30V464.705ZM128.65 427.505C126.65 425.005 122.15 420.305 113.8 420.305C102.65 420.305 92.7 428.005 92.7 442.955C92.7 458.205 102.95 465.955 113.8 465.955C121.35 465.955 126.25 461.905 128.65 458.655V464.705H136.2V421.355H128.65V427.505ZM114.65 427.005C121.35 427.005 129.05 431.905 129.05 443.055C129.05 451.755 123.85 459.255 114.65 459.255C105.65 459.255 100.45 452.155 100.45 442.955C100.45 432.405 107.25 427.005 114.65 427.005ZM169.2 421.355V440.655C169.2 445.155 169 449.155 167.4 452.155C165.85 455.205 163.15 457.705 159.4 457.805V476.205H166.25V464.705H199.3V476.205H206.2V457.805H199.7V421.355H169.2ZM192.2 457.805H171.5C175.55 454.155 176.7 449.555 176.7 444.555V428.255H192.2V457.805ZM262 450.155C261.05 452.255 259.5 454.455 257.5 456.155C255 458.205 252.05 459.255 248.6 459.255C241.1 459.255 234.85 453.405 234.85 444.555H268.6C268.9 438.705 267.35 432.105 264.5 428.255C261.9 424.455 256.55 420.305 248.1 420.305C235.15 420.305 227.1 430.305 227.1 443.305C227.1 459.505 238.05 465.955 248.5 465.955C254.15 465.955 258.95 464.205 262.95 460.605C265.15 458.655 267 456.055 268.25 453.605L262 450.155ZM235.35 438.255C236.5 431.705 241.7 427.005 248.1 427.005C254.45 427.005 259.6 431.455 260.85 438.255H235.35ZM316 421.355V439.105L299.7 421.355H290.95L309.75 441.405L289.05 464.705H298.45L314.55 446.405L316 447.905V464.705H323.55V447.905L325 446.405L341.1 464.705H350.5L329.8 441.405L348.65 421.355H339.85L323.55 439.105V421.355H316ZM373.7 464.705H381.25V446.005H401.7V464.705H409.25V421.355H401.7V439.105H381.25V421.355H373.7V464.705ZM439.1 464.705H454.3C458.55 464.705 463.15 464.605 467.05 461.055C469 459.255 470.9 456.055 470.9 451.305C470.9 446.855 469.2 443.905 467.55 442.255C463.7 438.355 458.25 437.955 454.4 437.955H446.65V421.355H439.1V464.705ZM446.65 458.005V444.655H453.75C456.15 444.655 458.45 444.655 460.45 445.905C462.65 447.255 463.15 449.355 463.15 451.305C463.15 454.655 461.3 456.155 460.35 456.855C458.55 458.005 456.15 458.005 453.65 458.005H446.65ZM476.1 464.705H483.65V421.355H476.1V464.705ZM513.55 421.355V467.755L543.2 435.755V464.705H550.75V418.005L521.05 449.955V421.355H513.55ZM517.4 402.655C519.6 408.905 525.15 412.755 532.55 412.755C539.95 412.755 545.5 408.905 547.7 402.655L541.45 400.205C540.3 403.905 537.45 406.505 532.55 406.505C527.65 406.505 524.8 403.905 523.65 400.205L517.4 402.655ZM620.65 421.355V464.705H628.15V428.255H648V464.705H655.55V421.355H620.65ZM718.65 427.505C716.7 425.005 712.2 420.305 703.8 420.305C692.65 420.305 682.7 428.005 682.7 442.955C682.7 458.205 692.95 465.955 703.8 465.955C711.35 465.955 716.25 461.905 718.65 458.655V464.705H726.2V421.355H718.65V427.505ZM704.65 427.005C711.35 427.005 719.1 431.905 719.1 443.055C719.1 451.755 713.85 459.255 704.65 459.255C695.65 459.255 690.45 452.155 690.45 442.955C690.45 432.405 697.25 427.005 704.65 427.005ZM763.6 458.655C766.85 462.805 771.65 465.955 778.75 465.955C791.8 465.955 799.55 455.205 799.55 443.305C799.55 431.555 792 420.305 778.45 420.305C775.3 420.305 768.6 420.905 763.6 427.405V421.355H756.05V488.755H763.6V458.655ZM777.7 459.255C768.95 459.255 763.2 452.055 763.2 443.155C763.2 432.705 770.5 427.005 777.6 427.005C784.6 427.005 791.8 432.605 791.8 443.305C791.8 452.055 786.5 459.255 777.7 459.255ZM855.15 428.255V421.355H820.45V428.255H834.05V464.705H841.55V428.255H855.15ZM878.75 464.705H886.3V446.005H906.75V464.705H914.3V421.355H906.75V439.105H886.3V421.355H878.75V464.705ZM976.35 450.155C975.4 452.255 973.85 454.455 971.85 456.155C969.35 458.205 966.45 459.255 963 459.255C955.45 459.255 949.2 453.405 949.2 444.555H982.95C983.25 438.705 981.7 432.105 978.85 428.255C976.25 424.455 970.9 420.305 962.45 420.305C949.5 420.305 941.45 430.305 941.45 443.305C941.45 459.505 952.45 465.955 962.9 465.955C968.5 465.955 973.35 464.205 977.3 460.605C979.5 458.655 981.35 456.055 982.65 453.605L976.35 450.155ZM949.7 438.255C950.85 431.705 956.1 427.005 962.45 427.005C968.85 427.005 973.95 431.455 975.2 438.255H949.7ZM1017.65 458.655C1020.85 462.805 1025.7 465.955 1032.8 465.955C1045.85 465.955 1053.6 455.205 1053.6 443.305C1053.6 431.555 1046.05 420.305 1032.45 420.305C1029.35 420.305 1022.65 420.905 1017.65 427.405V421.355H1010.1V488.755H1017.65V458.655ZM1031.75 459.255C1022.95 459.255 1017.2 452.055 1017.2 443.155C1017.2 432.705 1024.55 427.005 1031.65 427.005C1038.65 427.005 1045.85 432.605 1045.85 443.305C1045.85 452.055 1040.5 459.255 1031.75 459.255Z" fill="black" fill-opacity="0.34"></path> <path fill-rule="evenodd" clip-rule="evenodd" d="M344.518 92.0139H341.954L332.674 64.1785C321.513 30.6879 303.797 0 268.499 0C215.5 0 162.5 0 109.501 0C74.2031 0 56.4868 30.6879 45.3221 64.1785L36.046 92.0139H33.478C31.0167 92.0139 29 94.0271 29 96.4919V96.4955C29 98.9568 31.0167 100.977 33.478 100.977H344.518C346.983 100.977 349 98.9603 349 96.4955V96.4919C348.996 94.0271 346.983 92.0139 344.518 92.0139ZM102.245 21.5363H127.032V46.3199H151.816V21.5328H176.603V46.3199H201.39V21.5363H226.181V46.3199H250.961V21.5363H275.752V46.3235H250.968V71.1072H226.181V46.3235H201.39V71.1107H176.603V46.3235H151.816V71.1107H127.025V46.3271H102.245V21.5363Z" fill="#FFB200"></path> </svg> 